<?xml version="1.0" encoding="UTF-8"?>
<svg id="Layer_1" xmlns="http://www.w3.org/2000/svg" version="1.1" viewBox="0 0 653 575">
  <!-- Generator: Adobe Illustrator 30.2.1, SVG Export Plug-In . SVG Version: 2.1.1 Build 1)  -->
  <defs>
    <style>
      .st0 {
        fill: #fffff8;
      }
    </style>
  </defs>
  <path class="st0" d="M56.12,63.17h27.75v50.25c0,7.62,3.5,10.62,9.62,10.62h2.38c6.12,0,9.62-3,9.62-10.62v-50.25h27.62v52.25c0,22-14.62,32.62-38.38,32.62s-38.62-10.62-38.62-32.62v-52.25h.01Z"/>
  <path class="st0" d="M143.25,63.17h29.12l15.62,24.5c1.75,2.62,7.12,13.38,11.25,21.62l.88-.25c-1.5-9.25-3.5-23-3.5-25.62v-20.25h27v83.5h-27.62l-16.75-26.12c-1.5-2.5-6-11-9.88-17.88l-.88.12c.62,4.88,1.88,16.12,1.88,20.12v23.75h-27.12V63.17Z"/>
  <path class="st0" d="M263.12,63.17h33.88c31.88,0,42.25,13.75,42.25,41.25s-8.62,42.25-41.75,42.25h-34.38V63.17ZM298.38,123.92c3.5,0,7.5,0,10.38-2.75,2.25-2.12,3.38-6.12,3.38-11.75v-9.38c0-5.12-.62-9-2.88-11.25-2.12-2.25-5.38-2.88-10.38-2.88h-8.62v38h8.12Z"/>
  <path class="st0" d="M375.88,63.17v83.5h-27.12V63.17h27.12ZM368.38,55.42h-19.5l11.12-22.75h23.38l-15,22.75Z"/>
  <path class="st0" d="M473.38,145.8l-.62.88h-27.5l-4.25-15.25h-26.12l-4.25,15.25h-27.5l-.62-.88,27.12-82.62h36.62l27.12,82.62ZM419.88,113.8h16.12c-2.62-8.88-5-19-7.38-28.12h-1.38c-2.38,9.12-4.75,19.25-7.38,28.12h.02Z"/>
  <path class="st0" d="M98.62,177.56c9.25,0,17.12,1.25,21.38,2.25v22.5l-.5.5c-4.62-.62-10-1.25-15.62-1.25-6.38,0-12.12.88-15.25,3-3.38,2.38-4.88,8-4.88,14v4c0,6.5,1.62,12,5.25,14.25,3.12,1.88,9.25,2.5,14.38,2.5s13-1,17.12-1.88l.62.5v22.38c-4.75,1.38-12.88,3-25.12,3-29.62,0-41-13.88-41-43.62s14.12-42.12,43.62-42.12h0Z"/>
  <path class="st0" d="M167.75,177.31c23.5,0,41.25,13,41.25,43.38,0,27.88-14.62,42.88-41.25,42.88s-41.12-15.38-41.12-42.88c0-30.38,17.62-43.38,41.12-43.38ZM167.75,239.56c9.62,0,13.88-5.62,13.88-14.62v-9.25c0-8.88-4.12-14.38-13.88-14.38s-13.88,5.5-13.88,14.38v9.25c0,9.12,4.25,14.62,13.88,14.62Z"/>
  <path class="st0" d="M217.88,178.68h29.75l18.88,31.88h.25l18.75-31.88h29.75v83.5h-27.12v-25.75c0-3.62.88-14.5,1.38-20.62l-.88-.12c-1.88,3.62-4.38,9.38-5.88,12l-13,22.62h-6.38l-13-22.62c-1.5-2.62-4-8.25-5.88-12l-.75.12c.38,6.12,1.25,17,1.25,20.62v25.75h-27.12v-83.5Z"/>
  <path class="st0" d="M365.25,177.31c23.5,0,41.25,13,41.25,43.38,0,27.88-14.62,42.88-41.25,42.88s-41.12-15.38-41.12-42.88c0-30.38,17.62-43.38,41.12-43.38ZM365.25,239.56c9.62,0,13.88-5.62,13.88-14.62v-9.25c0-8.88-4.12-14.38-13.88-14.38s-13.88,5.5-13.88,14.38v9.25c0,9.12,4.25,14.62,13.88,14.62Z"/>
  <path class="st0" d="M56.88,294.19h29.12l15.62,24.5c1.75,2.62,7.12,13.38,11.25,21.62l.88-.25c-1.5-9.25-3.5-23-3.5-25.62v-20.25h27v83.5h-27.62l-16.75-26.12c-1.5-2.5-6-11-9.88-17.88l-.88.12c.62,4.88,1.88,16.12,1.88,20.12v23.75h-27.12v-83.5h0Z"/>
  <path class="st0" d="M178.25,294.19v83.5h-27.12v-83.5h27.12Z"/>
  <path class="st0" d="M192.12,294.19h29.12l15.62,24.5c1.75,2.62,7.12,13.38,11.25,21.62l.88-.25c-1.5-9.25-3.5-23-3.5-25.62v-20.25h27v83.5h-27.62l-16.75-26.12c-1.5-2.5-6-11-9.88-17.88l-.88.12c.62,4.88,1.88,16.12,1.88,20.12v23.75h-27.12v-83.5h0Z"/>
  <path class="st0" d="M357,333.82v43.88h-18.12l-4.38-7.88h-.5c-3,6.38-8.5,9-16.88,9-22,0-33.25-13.88-33.25-41.75,0-31.25,14-44,47.88-44,10.38,0,19.75,1,24.12,1.75l.12,22.88-.5.62c-5-.62-12.38-1.25-19.5-1.25-8.75,0-15.25,1.12-18.75,3.38-3.88,2.5-5.5,8.25-5.5,14.62v3.75c0,6.88,1.62,12.88,4.75,14.88,2.38,1.62,6.25,2.38,11.38,2.38,2,0,4.25-.25,6-.75v-21.5h23.13Z"/>
  <path class="st0" d="M368.62,294.19h27.75v50.25c0,7.62,3.5,10.62,9.62,10.62h2.38c6.12,0,9.62-3,9.62-10.62v-50.25h27.62v52.25c0,22-14.62,32.62-38.38,32.62s-38.62-10.62-38.62-32.62v-52.25h.01ZM413.25,286.44h-19.5l11.12-22.75h23.38l-15,22.75Z"/>
  <path class="st0" d="M458.25,294.19h29.12l15.62,24.5c1.75,2.62,7.12,13.38,11.25,21.62l.88-.25c-1.5-9.25-3.5-23-3.5-25.62v-20.25h27v83.5h-27.62l-16.75-26.12c-1.5-2.5-6-11-9.88-17.88l-.88.12c.62,4.88,1.88,16.12,1.88,20.12v23.75h-27.12v-83.5h0Z"/>
  <path class="st0" d="M96.12,408.33c23.5,0,41.25,13,41.25,43.38,0,27.88-14.62,42.88-41.25,42.88s-41.12-15.38-41.12-42.88c0-30.38,17.62-43.38,41.12-43.38ZM96.12,470.58c9.62,0,13.88-5.62,13.88-14.62v-9.25c0-8.88-4.12-14.38-13.88-14.38s-13.88,5.5-13.88,14.38v9.25c0,9.12,4.25,14.62,13.88,14.62Z"/>
  <path class="st0" d="M211.12,434.2h-21.88v59h-27.75v-59h-21.88v-24.5h71.5v24.5h.01Z"/>
  <path class="st0" d="M293,492.33l-.38.88h-28.88l-9.25-22.75h-9.75v22.75h-27.38v-83.5h41.38c22.38,0,33,9.12,33,29.25,0,12-3.62,20.62-10.5,25.88l11.75,27.5h.01ZM244.75,452.33h11.88c6,0,7.88-3.62,7.88-8.62v-4.12c0-5.75-2.62-7.62-7.88-7.62h-11.88v20.38-.02Z"/>
  <path class="st0" d="M340,408.33c23.5,0,41.25,13,41.25,43.38,0,27.88-14.62,42.88-41.25,42.88s-41.12-15.38-41.12-42.88c0-30.38,17.62-43.38,41.12-43.38ZM340,470.58c9.62,0,13.88-5.62,13.88-14.62v-9.25c0-8.88-4.12-14.38-13.88-14.38s-13.88,5.5-13.88,14.38v9.25c0,9.12,4.25,14.62,13.88,14.62Z"/>
  <path class="st0" d="M394.04,473.6c10.32,0,11.95,1.86,11.95,10.9s-1.62,10.9-11.95,10.9-11.95-1.86-11.95-10.9,1.62-10.9,11.95-10.9Z"/>
</svg>