<?xml version="1.0" encoding="UTF-8"?>
<svg id="Layer_1" data-name="Layer 1" xmlns="http://www.w3.org/2000/svg" viewBox="0 0 814.93 246">
  <defs>
    <style>
      .cls-1 {
        fill: #fffff8;
      }
    </style>
  </defs>
  <path class="cls-1" d="M139.44,82.48l-22.06,56.54h-6.37l-22.23-56.54,7.13-.02,13.42,33.53c2.43,6.4,3.02,7.94,4.87,13.91h.33c1.84-5.97,2.35-7.43,4.87-13.91l13.33-33.53,6.72.02Z"/>
  <rect class="cls-1" x="147.41" y="82.17" width="7.29" height="56.85"/>
  <path class="cls-1" d="M193.11,93.3c-4.44-3.75-7.63-5.21-11.41-5.21-5.11,0-8.8,3.51-8.8,8.37,0,2.72,1.34,5.02,3.77,6.73,1.92,1.28,2.76,1.72,9.72,4.95,8.56,4.09,11.74,8.19,11.74,15.36,0,9.73-7.55,16.64-18.03,16.64-5.7,0-10.65-1.79-15.93-5.8l1.51-7.76c4.78,4.77,9.89,7.17,15.18,7.17,5.78,0,9.81-3.84,9.81-9.47,0-4.01-2.43-6.65-8.38-9.39l-4.95-2.21c-7.63-3.33-11.41-8.36-11.41-15.18,0-9.13,6.88-15.87,16.27-15.87,5.29,0,10.15,1.88,13.92,5.38l-3.02,6.31Z"/>
  <rect class="cls-1" x="208.37" y="82.17" width="7.29" height="56.85"/>
  <path class="cls-1" d="M269.17,82.17v6.86h-17.36c-.92,0-1.09,0-1.93-.26.26.85.26,1.03.26,1.97v48.28h-7.3v-48.28c0-.94,0-1.11.25-1.97-.84.26-1.01.26-1.93.26h-17.28v-6.86h45.29Z"/>
  <path class="cls-1" d="M429.43,80.62c-24.36,0-42.72,18.12-42.72,42.15s17.79,43.04,41.38,43.04c24.82,0,42.15-17.28,42.15-42.03s-17.54-43.16-40.81-43.16M429.76,148.46c-13.78,0-23.79-11.46-23.79-27.26,0-14.1,8.74-23.57,21.77-23.57s23.46,12.02,23.46,27.37c0,14.03-8.62,23.46-21.45,23.46"/>
  <path class="cls-1" d="M520.7,129.09s-.2-.27-.5-.64c8.24-4.77,12.8-12.07,12.8-21.7,0-16.04-12.07-25.25-33.1-25.25-5.87,0-10.77.43-17.25,1.15l-3.73.42v81.29h18.14v-30.45h5.34c2.21,3.21,20.94,30.45,20.94,30.45h22.01l-24.65-35.26ZM506.96,118.23h-9.9v-20.13c1.93-.13,3.85-.26,3.85-.26,12.29,0,13.72,6.05,13.72,10.59,0,5.31-3.51,9.8-7.68,9.8"/>
  <rect class="cls-1" x="549.99" y="81.95" width="18.13" height="82.4"/>
  <path class="cls-1" d="M636.37,93.52c-8.1-7.58-20.54-11.57-36.05-11.57l-14.4.46c.09,0-2.15.11-2.15.11h.01l-6.36.29v80.63l3.84.34c6.48.55,10.59.8,16.37.8,11.54,0,19.7-1.14,27.27-3.84,14.21-5.19,23.72-20.14,23.72-37.19,0-11.65-4.47-22.6-12.26-30.02M625.49,138.91c-3.3,4.9-6.36,7.16-16.84,8.46-4.04.46-8.49.74-11.57.74,0,0-.92-.05-1.52-.08v-49.4c.94-.04,2.08-.09,2.08-.09,7.61,0,14,1.22,19.02,3.61,7.88,3.71,12.95,12.59,12.95,22.63,0,5.14-1.46,10.16-4.12,14.15"/>
  <path class="cls-1" d="M678.9,80.72l-34.73,83.63h18.85s7.83-19.27,9.51-23.4h24.79c1.67,4.15,9.41,23.4,9.41,23.4h19.4l-34.36-83.63h-12.88ZM688.08,125.28h-6.15s-1.75.04-3.08.07c.53-1.2,1.25-2.79,1.25-2.79,0-.01,2.69-6.61,2.69-6.61,0-.01,1.04-2.81,2.24-6.05,1.1,2.9,2.3,6.07,2.3,6.07l2.7,6.5.53,1.36s.47,1.04.67,1.53c-1.38-.03-3.16-.07-3.16-.07"/>
  <path class="cls-1" d="M712.42,80.17c3.83,0,6.86,2.98,6.86,6.78s-3.03,6.86-6.9,6.86-6.95-2.98-6.95-6.86,3.07-6.78,6.95-6.78h.04ZM712.33,81.36c-3.07,0-5.41,2.51-5.41,5.58s2.34,5.62,5.5,5.62c3.07.04,5.33-2.47,5.33-5.58s-2.26-5.62-5.37-5.63h-.04ZM711.13,90.7h-1.32v-7.12c.72-.13,1.49-.21,2.47-.21,1.19,0,1.79.21,2.26.55.43.3.72.85.72,1.49,0,.89-.64,1.45-1.41,1.7v.09c.64.26.98.81,1.2,1.71.21,1.11.34,1.53.51,1.79h-1.37c-.21-.26-.38-.9-.56-1.88-.17-.77-.64-1.11-1.66-1.11h-.85v2.98ZM711.13,86.69h.9c.98,0,1.83-.3,1.83-1.15,0-.68-.42-1.15-1.7-1.15-.51,0-.81.04-1.03.09v2.21Z"/>
  <rect class="cls-1" x="89.03" y="157.04" width="180.38" height="7.35"/>
  <polygon class="cls-1" points="323.28 82.29 280.57 82.29 280.57 164.35 298.7 164.35 298.7 130.65 324.22 130.65 324.22 114.2 298.7 114.2 298.7 98.76 327.49 98.76 327.49 82.29 323.28 82.29"/>
  <polygon class="cls-1" points="335.15 81.95 335.15 164.13 383.84 164.13 386.81 147.68 353.29 147.68 353.29 81.95 335.15 81.95"/>
</svg>